<svg width="400" height="320" viewBox="0 0 400 320" fill="none" xmlns="http://www.w3.org/2000/svg">
  <!-- Three student characters -->

  <!-- Student 1 (left, female, teal shirt) -->
  <g transform="translate(20, 30)">
    <ellipse cx="65" cy="278" rx="40" ry="14" fill="rgba(0,0,0,0.15)"/>
    <rect x="52" y="222" width="12" height="58" rx="6" fill="#1e3a5f"/>
    <rect x="70" y="222" width="12" height="58" rx="6" fill="#1e3a5f"/>
    <rect x="42" y="148" width="46" height="78" rx="16" fill="#14b8a6"/>
    <path d="M 42 170 Q 22 182 16 200 Q 12 216 24 224" stroke="#f8c77a" stroke-width="16" stroke-linecap="round" fill="none"/>
    <path d="M 88 170 Q 108 182 114 200 Q 118 216 106 224" stroke="#f8c77a" stroke-width="16" stroke-linecap="round" fill="none"/>
    <rect x="57" y="128" width="14" height="22" rx="7" fill="#f8d5a5"/>
    <ellipse cx="65" cy="112" rx="28" ry="30" fill="#f8d5a5"/>
    <ellipse cx="54" cy="108" rx="5" ry="6" fill="white"/><ellipse cx="76" cy="108" rx="5" ry="6" fill="white"/>
    <ellipse cx="55" cy="109" rx="3.2" ry="3.8" fill="#1e293b"/><ellipse cx="77" cy="109" rx="3.2" ry="3.8" fill="#1e293b"/>
    <path d="M 58 120 Q 65 126 72 120" stroke="#c0622a" stroke-width="2" stroke-linecap="round" fill="none"/>
    <ellipse cx="65" cy="88" rx="28" ry="18" fill="#7c3a0a"/>
    <ellipse cx="40" cy="104" rx="9" ry="14" fill="#7c3a0a"/>
    <path d="M 37 112 Q 36 135 50 145 Q 60 148 65 148" stroke="#7c3a0a" stroke-width="14" fill="none" stroke-linecap="round"/>
  </g>

  <!-- Student 2 (center, male, orange shirt) -->
  <g transform="translate(135, 10)">
    <ellipse cx="65" cy="298" rx="44" ry="15" fill="rgba(0,0,0,0.15)"/>
    <rect x="51" y="238" width="13" height="63" rx="6.5" fill="#1e3a5f"/>
    <rect x="71" y="238" width="13" height="63" rx="6.5" fill="#1e3a5f"/>
    <rect x="40" y="155" width="50" height="88" rx="18" fill="#f97316"/>
    <rect x="60" y="155" width="10" height="88" fill="#ea6210" opacity="0.3"/>
    <path d="M 40 175 Q 16 190 10 212 Q 6 232 20 240" stroke="#f5c28a" stroke-width="18" stroke-linecap="round" fill="none"/>
    <path d="M 90 175 Q 114 190 120 212 Q 124 232 110 240" stroke="#f5c28a" stroke-width="18" stroke-linecap="round" fill="none"/>
    <rect x="56" y="133" width="18" height="25" rx="9" fill="#f5c28a"/>
    <ellipse cx="65" cy="116" rx="32" ry="34" fill="#f5c28a"/>
    <ellipse cx="52" cy="112" rx="6" ry="7" fill="white"/><ellipse cx="78" cy="112" rx="6" ry="7" fill="white"/>
    <ellipse cx="53" cy="113" rx="4" ry="4.5" fill="#1e293b"/><ellipse cx="79" cy="113" rx="4" ry="4.5" fill="#1e293b"/>
    <ellipse cx="54" cy="112" rx="1.5" ry="1.5" fill="white"/><ellipse cx="80" cy="112" rx="1.5" ry="1.5" fill="white"/>
    <path d="M 54 127 Q 65 136 76 127" stroke="#c0622a" stroke-width="2.5" stroke-linecap="round" fill="none"/>
    <ellipse cx="65" cy="88" rx="32" ry="20" fill="#0f172a"/>
    <ellipse cx="36" cy="106" rx="10" ry="16" fill="#0f172a"/>
    <ellipse cx="94" cy="106" rx="10" ry="16" fill="#0f172a"/>
    <path d="M 46 100 Q 48 95 54 97" stroke="#7c3a0a" stroke-width="2" fill="none"/>
    <path d="M 76 97 Q 82 95 84 100" stroke="#7c3a0a" stroke-width="2" fill="none"/>
  </g>

  <!-- Student 3 (right, female, green shirt, holding book) -->
  <g transform="translate(255, 20)">
    <ellipse cx="70" cy="290" rx="42" ry="14" fill="rgba(0,0,0,0.14)"/>
    <rect x="56" y="232" width="13" height="60" rx="6.5" fill="#1e3a5f"/>
    <rect x="75" y="232" width="13" height="60" rx="6.5" fill="#1e3a5f"/>
    <rect x="46" y="150" width="48" height="85" rx="17" fill="#10b981"/>
    <path d="M 46 168 Q 26 182 20 202 Q 16 220 28 228" stroke="#f8d5a5" stroke-width="16" stroke-linecap="round" fill="none"/>
    <path d="M 94 165 Q 116 180 122 202 Q 128 222 114 228" stroke="#f8d5a5" stroke-width="16" stroke-linecap="round" fill="none"/>
    <!-- Book in right hand -->
    <rect x="106" y="210" width="34" height="44" rx="4" fill="#fbbf24"/>
    <rect x="108" y="212" width="30" height="40" rx="3" fill="#f59e0b"/>
    <rect x="111" y="218" width="18" height="3" rx="1.5" fill="white" opacity="0.6"/>
    <rect x="111" y="225" width="22" height="3" rx="1.5" fill="white" opacity="0.5"/>
    <rect x="111" y="232" width="15" height="3" rx="1.5" fill="white" opacity="0.5"/>
    <line x1="122" y1="212" x2="122" y2="252" stroke="#d97706" stroke-width="2"/>
    <rect x="60" y="128" width="16" height="24" rx="8" fill="#f8d5a5"/>
    <ellipse cx="68" cy="112" rx="30" ry="32" fill="#f8d5a5"/>
    <ellipse cx="56" cy="108" rx="5.5" ry="6.5" fill="white"/><ellipse cx="80" cy="108" rx="5.5" ry="6.5" fill="white"/>
    <ellipse cx="57" cy="109" rx="3.5" ry="4" fill="#1e293b"/><ellipse cx="81" cy="109" rx="3.5" ry="4" fill="#1e293b"/>
    <ellipse cx="58" cy="108" rx="1.5" ry="1.5" fill="white"/><ellipse cx="82" cy="108" rx="1.5" ry="1.5" fill="white"/>
    <path d="M 60 122 Q 68 130 76 122" stroke="#c0622a" stroke-width="2" stroke-linecap="round" fill="none"/>
    <!-- Long hair -->
    <ellipse cx="68" cy="88" rx="30" ry="18" fill="#1a0a00"/>
    <ellipse cx="42" cy="106" rx="10" ry="16" fill="#1a0a00"/>
    <path d="M 40 112 Q 38 145 52 160 Q 62 166 68 166" stroke="#1a0a00" stroke-width="16" fill="none" stroke-linecap="round"/>
    <path d="M 96 112 Q 98 145 84 160 Q 76 166 68 166" stroke="#1a0a00" stroke-width="14" fill="none" stroke-linecap="round"/>
    <!-- Hair band -->
    <ellipse cx="68" cy="82" rx="18" ry="6" fill="#f97316"/>
  </g>
</svg>
