<svg width="960" height="720" viewBox="0 0 960 720" fill="none" xmlns="http://www.w3.org/2000/svg">
  <rect width="960" height="720" rx="36" fill="#E6FFFB"/>
  <rect x="46" y="48" width="868" height="624" rx="28" fill="#F8FAFC" stroke="#CFFAFE"/>
  <rect x="88" y="90" width="784" height="70" rx="22" fill="#0F172A"/>
  <rect x="118" y="116" width="130" height="18" rx="9" fill="#67E8F9" fill-opacity="0.6"/>
  <rect x="716" y="112" width="126" height="24" rx="12" fill="#14B8A6"/>
  <rect x="88" y="188" width="244" height="444" rx="24" fill="#0F172A"/>
  <rect x="364" y="188" width="508" height="214" rx="24" fill="#DFF7F4"/>
  <rect x="364" y="418" width="244" height="214" rx="24" fill="#ECFEFF"/>
  <rect x="628" y="418" width="244" height="214" rx="24" fill="#CCFBF1"/>
  <path d="M140 498C169 454 206 454 234 406C269 344 318 316 318 258" stroke="#67E8F9" stroke-width="10" stroke-linecap="round"/>
  <circle cx="140" cy="498" r="16" fill="#67E8F9"/>
  <circle cx="234" cy="406" r="16" fill="#2DD4BF"/>
  <circle cx="318" cy="258" r="16" fill="#F8FAFC"/>
  <rect x="404" y="226" width="142" height="18" rx="9" fill="#0F766E" fill-opacity="0.25"/>
  <rect x="404" y="262" width="216" height="28" rx="14" fill="#0F172A"/>
  <rect x="404" y="306" width="350" height="14" rx="7" fill="#64748B" fill-opacity="0.45"/>
  <rect x="404" y="340" width="296" height="14" rx="7" fill="#64748B" fill-opacity="0.35"/>
  <rect x="396" y="450" width="112" height="112" rx="28" fill="#0F172A"/>
  <rect x="660" y="450" width="112" height="112" rx="28" fill="#0F766E"/>
  <rect x="528" y="470" width="48" height="12" rx="6" fill="#0F172A" fill-opacity="0.5"/>
  <rect x="528" y="500" width="62" height="32" rx="16" fill="#0F172A"/>
</svg>